<svg xmlns="http://www.w3.org/2000/svg" version="1.1" viewBox="0.00 0.00 999.00 446.00" width="999.00" height="446.00">
<g stroke-width="2.00" fill="none" stroke-linecap="butt">
<path stroke="#838383" d="&#10;  M 247.22 163.71&#10;  Q 247.21 163.50 247.21 163.45&#10;  Q 247.14 159.93 250.66 159.93&#10;  L 319.00 159.93&#10;  Q 320.42 159.93 321.29 158.81&#10;  L 339.57 135.13&#10;  A 0.38 0.38 0.0 0 0 339.27 134.51&#10;  Q 295.43 134.55 252.09 134.48&#10;  C 238.83 134.46 224.88 138.55 217.18 149.22&#10;  C 211.68 156.83 211.45 169.22 216.73 177.01&#10;  C 224.15 187.98 238.30 192.41 251.52 192.45&#10;  Q 299.21 192.57 302.46 192.66&#10;  C 306.19 192.77 312.76 193.73 313.89 198.03&#10;  C 314.28 199.52 313.46 201.58 312.25 202.52&#10;  C 308.50 205.44 303.13 205.76 298.01 205.77&#10;  Q 265.89 205.81 233.60 205.74&#10;  A 3.07 3.05 -70.9 0 0 231.19 206.92&#10;  L 213.42 229.94&#10;  A 0.85 0.84 18.8 0 0 214.09 231.30&#10;  Q 272.84 231.30 302.25 231.24&#10;  C 318.81 231.22 340.79 222.28 342.60 203.04&#10;  Q 344.27 185.36 330.33 175.64&#10;  Q 318.38 167.29 305.23 167.19&#10;  Q 293.99 167.10 250.69 167.02&#10;  Q 247.38 167.01 247.22 163.71"/>
<path stroke="#838383" d="&#10;  M 411.95 195.38&#10;  Q 434.00 195.38 439.91 195.47&#10;  A 0.37 0.37 0.0 0 1 440.27 195.84&#10;  L 440.27 230.74&#10;  A 0.56 0.55 0.0 0 0 440.83 231.29&#10;  L 470.23 231.29&#10;  A 0.51 0.51 0.0 0 0 470.74 230.78&#10;  L 470.74 135.01&#10;  Q 470.74 134.50 470.23 134.50&#10;  L 440.77 134.50&#10;  A 0.49 0.49 0.0 0 0 440.28 134.99&#10;  L 440.28 169.16&#10;  A 0.43 0.42 -90.0 0 1 439.86 169.59&#10;  Q 425.77 169.71 411.95 169.71&#10;  Q 398.14 169.71 384.05 169.59&#10;  A 0.43 0.42 90.0 0 1 383.63 169.16&#10;  L 383.63 134.99&#10;  A 0.49 0.49 0.0 0 0 383.14 134.50&#10;  L 353.68 134.50&#10;  Q 353.17 134.50 353.17 135.01&#10;  L 353.17 230.78&#10;  A 0.51 0.51 0.0 0 0 353.68 231.29&#10;  L 383.08 231.29&#10;  A 0.56 0.55 0.0 0 0 383.64 230.74&#10;  L 383.64 195.84&#10;  A 0.37 0.37 0.0 0 1 383.99 195.47&#10;  Q 389.91 195.38 411.95 195.38"/>
<path stroke="#838383" d="&#10;  M 553.11 197.06&#10;  Q 553.16 197.06 553.20 197.06&#10;  Q 553.32 197.07 553.40 197.15&#10;  L 585.36 230.68&#10;  A 1.96 1.96 0.0 0 0 586.78 231.29&#10;  L 623.06 231.29&#10;  A 0.70 0.70 0.0 0 0 623.56 230.11&#10;  L 579.13 184.04&#10;  A 0.53 0.52 45.4 0 1 579.13 183.31&#10;  L 625.73 135.45&#10;  A 0.55 0.55 0.0 0 0 625.34 134.52&#10;  L 588.52 134.52&#10;  A 3.25 3.24 -68.2 0 0 586.17 135.53&#10;  Q 569.63 152.91 553.42 169.70&#10;  Q 553.38 169.74 553.12 169.74&#10;  Q 552.86 169.74 552.81 169.70&#10;  Q 536.61 152.90 520.07 135.52&#10;  A 3.25 3.24 68.2 0 0 517.72 134.51&#10;  L 480.90 134.50&#10;  A 0.55 0.55 0.0 0 0 480.51 135.43&#10;  L 527.10 183.30&#10;  A 0.53 0.52 -45.4 0 1 527.10 184.03&#10;  L 482.65 230.09&#10;  A 0.70 0.70 0.0 0 0 483.15 231.27&#10;  L 519.43 231.28&#10;  A 1.96 1.96 0.0 0 0 520.85 230.67&#10;  L 552.82 197.15&#10;  Q 552.90 197.07 553.02 197.06&#10;  Q 553.07 197.06 553.11 197.06"/>
<path stroke="#838383" d="&#10;  M 648.12 231.09&#10;  A 0.41 0.41 0.0 0 0 648.41 230.40&#10;  L 603.38 183.69&#10;  A 0.41 0.41 0.0 0 1 603.38 183.12&#10;  L 651.23 135.26&#10;  A 0.41 0.41 0.0 0 0 650.94 134.56&#10;  L 637.53 134.56&#10;  A 0.41 0.41 0.0 0 0 637.24 134.68&#10;  L 588.42 183.51&#10;  A 0.41 0.41 0.0 0 0 588.41 184.08&#10;  L 631.65 230.96&#10;  A 0.41 0.41 0.0 0 0 631.95 231.09&#10;  L 648.12 231.09"/>
<path stroke="#838383" d="&#10;  M 688.90 205.77&#10;  A 0.66 0.66 0.0 0 1 688.24 205.11&#10;  L 688.24 195.56&#10;  A 0.66 0.66 0.0 0 1 688.90 194.90&#10;  L 738.70 194.90&#10;  A 0.66 0.66 0.0 0 0 739.22 194.64&#10;  L 757.81 170.57&#10;  A 0.66 0.66 0.0 0 0 757.29 169.51&#10;  L 688.86 169.51&#10;  A 0.66 0.66 0.0 0 1 688.20 168.85&#10;  L 688.20 160.56&#10;  A 0.66 0.66 0.0 0 1 688.86 159.90&#10;  L 743.37 159.90&#10;  A 0.66 0.66 0.0 0 0 743.89 159.64&#10;  L 762.48 135.57&#10;  A 0.66 0.66 0.0 0 0 761.96 134.51&#10;  L 658.50 134.51&#10;  A 0.66 0.66 0.0 0 0 657.84 135.17&#10;  L 657.84 230.64&#10;  A 0.66 0.66 0.0 0 0 658.50 231.30&#10;  L 743.30 231.30&#10;  A 0.66 0.66 0.0 0 0 743.82 231.04&#10;  L 762.51 206.83&#10;  A 0.66 0.66 0.0 0 0 761.99 205.77&#10;  L 688.90 205.77"/>
<path stroke="#838383" d="&#10;  M 203.66 231.21&#10;  A 0.74 0.74 0.0 0 0 204.24 230.92&#10;  L 222.76 206.93&#10;  A 0.74 0.74 0.0 0 0 222.17 205.74&#10;  L 208.67 205.74&#10;  A 0.74 0.74 0.0 0 0 208.09 206.03&#10;  L 189.56 230.02&#10;  A 0.74 0.74 0.0 0 0 190.15 231.21&#10;  L 203.66 231.21"/>
<path stroke="#838383" d="&#10;  M 484.86 269.88&#10;  Q 485.03 269.52 485.08 268.86&#10;  Q 485.12 268.38 484.84 268.00&#10;  L 480.02 261.18&#10;  Q 478.98 259.72 477.30 260.35&#10;  L 469.73 263.22&#10;  A 1.05 1.03 63.2 0 0 469.24 264.76&#10;  L 472.45 269.80&#10;  A 0.36 0.36 0.0 0 1 472.15 270.35&#10;  L 441.47 270.35&#10;  Q 440.22 270.35 440.38 271.59&#10;  Q 441.52 280.21 440.52 290.62&#10;  Q 440.47 291.18 441.03 291.18&#10;  L 451.64 291.18&#10;  A 0.50 0.49 -0.0 0 0 452.14 290.69&#10;  L 452.14 281.94&#10;  A 0.83 0.82 -90.0 0 1 452.96 281.11&#10;  L 503.51 281.11&#10;  A 0.59 0.58 90.0 0 1 504.09 281.70&#10;  L 504.09 290.44&#10;  A 0.77 0.77 0.0 0 0 504.86 291.21&#10;  L 515.38 291.21&#10;  Q 515.81 291.21 515.81 290.77&#10;  L 515.81 271.46&#10;  A 1.16 1.15 -90.0 0 0 514.66 270.30&#10;  L 485.14 270.30&#10;  Q 484.67 270.30 484.86 269.88"/>
<path stroke="#838383" d="&#10;  M 297.52 285.42&#10;  C 294.14 289.80 287.75 296.11 281.67 297.28&#10;  A 0.80 0.80 0.0 0 0 281.09 298.40&#10;  L 285.12 307.42&#10;  A 1.10 1.10 0.0 0 0 286.76 307.87&#10;  L 292.80 303.59&#10;  A 0.46 0.45 -17.7 0 1 293.52 303.96&#10;  L 293.52 321.71&#10;  A 1.09 1.08 90.0 0 0 294.60 322.80&#10;  L 311.27 322.80&#10;  A 0.62 0.62 0.0 0 1 311.89 323.42&#10;  L 311.89 326.95&#10;  Q 311.89 327.64 311.19 327.64&#10;  L 287.68 327.64&#10;  A 0.78 0.78 0.0 0 0 286.93 328.63&#10;  L 290.08 339.93&#10;  Q 290.21 340.40 290.92 340.24&#10;  C 292.16 339.97 293.95 339.35 295.61 339.14&#10;  Q 314.47 336.79 333.49 335.18&#10;  Q 334.11 335.13 334.36 335.70&#10;  L 335.34 337.90&#10;  Q 335.66 338.60 336.28 338.16&#10;  L 337.93 336.98&#10;  A 1.01 1.01 0.0 0 1 339.49 337.54&#10;  L 341.74 345.61&#10;  A 0.97 0.97 0.0 0 0 342.77 346.31&#10;  Q 350.47 345.47 356.03 341.78&#10;  C 359.64 339.38 360.54 334.46 360.62 330.52&#10;  Q 361.00 310.66 360.65 288.17&#10;  A 0.55 0.54 89.5 0 0 360.11 287.63&#10;  L 310.96 287.63&#10;  Q 310.28 287.63 310.56 287.02&#10;  L 311.06 285.91&#10;  Q 311.44 285.07 312.36 285.07&#10;  L 357.28 285.07&#10;  A 0.65 0.65 0.0 0 0 357.93 284.42&#10;  L 357.93 262.45&#10;  A 0.59 0.58 -3.1 0 0 357.28 261.87&#10;  Q 354.53 262.15 351.61 262.23&#10;  Q 335.24 262.67 295.50 262.31&#10;  C 293.58 262.29 291.03 261.93 288.84 261.70&#10;  A 1.16 1.16 0.0 0 0 287.56 262.85&#10;  L 287.56 284.78&#10;  A 0.62 0.61 -1.3 0 0 288.21 285.39&#10;  L 297.25 284.90&#10;  A 0.32 0.32 0.0 0 1 297.52 285.42"/>
<path stroke="#838383" d="&#10;  M 641.43 288.94&#10;  L 633.59 263.45&#10;  A 1.48 1.48 0.0 0 0 631.74 262.47&#10;  L 622.64 265.27&#10;  A 1.28 0.25 -17.1 0 0 621.49 265.89&#10;  L 630.05 293.72&#10;  A 1.28 0.25 -17.1 0 0 631.35 293.58&#10;  L 640.45 290.79&#10;  A 1.48 1.48 0.0 0 0 641.43 288.94"/>
<path stroke="#838383" d="&#10;  M 648.97 304.06&#10;  L 592.70 304.06&#10;  Q 592.21 304.06 592.21 304.55&#10;  L 592.21 315.21&#10;  Q 592.21 315.67 592.67 315.67&#10;  L 673.01 315.67&#10;  A 0.67 0.67 0.0 0 0 673.68 315.00&#10;  L 673.68 304.56&#10;  A 0.55 0.55 0.0 0 0 673.13 304.01&#10;  L 654.46 304.01&#10;  A 0.38 0.38 0.0 0 1 654.11 303.47&#10;  C 657.09 296.78 660.48 288.83 663.01 280.48&#10;  Q 664.93 274.15 666.66 269.39&#10;  A 1.14 1.13 -75.6 0 0 665.77 267.88&#10;  Q 660.92 267.13 655.79 264.76&#10;  Q 653.83 263.85 653.56 266.00&#10;  Q 651.76 280.76 644.65 294.96&#10;  Q 643.75 296.77 641.97 299.34&#10;  A 0.60 0.60 0.0 0 0 642.22 300.23&#10;  L 649.12 303.35&#10;  Q 650.70 304.06 648.97 304.06"/>
<path stroke="#838383" d="&#10;  M 606.72 290.44&#10;  C 608.45 295.12 609.74 298.03 610.32 301.16&#10;  A 1.21 1.21 0.0 0 0 612.00 302.05&#10;  L 621.32 297.89&#10;  A 1.47 1.47 0.0 0 0 622.06 295.95&#10;  L 611.23 271.69&#10;  A 1.10 1.10 0.0 0 0 609.84 271.11&#10;  L 600.06 274.83&#10;  A 0.79 0.79 0.0 0 0 599.61 275.89&#10;  C 601.81 280.75 604.86 285.40 606.72 290.44"/>
<path stroke="#838383" d="&#10;  M 463.51 306.01&#10;  A 0.40 0.39 -80.8 0 1 463.88 306.53&#10;  Q 461.57 313.52 457.80 320.05&#10;  Q 455.19 324.56 453.29 326.06&#10;  Q 447.23 330.81 439.40 335.16&#10;  A 0.98 0.98 0.0 0 0 439.28 336.80&#10;  Q 443.49 340.05 445.93 344.00&#10;  A 1.15 1.15 0.0 0 0 447.52 344.37&#10;  C 461.45 335.45 470.49 322.40 475.60 306.91&#10;  Q 475.92 305.95 476.93 305.95&#10;  L 516.82 305.95&#10;  Q 517.56 305.95 517.56 305.21&#10;  L 517.56 295.47&#10;  A 0.47 0.46 0.0 0 0 517.09 295.01&#10;  L 479.34 295.01&#10;  A 0.49 0.49 0.0 0 1 478.86 294.42&#10;  L 480.70 286.08&#10;  Q 481.01 284.69 479.60 284.84&#10;  Q 479.45 284.85 479.14 284.88&#10;  Q 478.83 284.92 478.58 284.85&#10;  Q 474.22 283.73 469.97 282.95&#10;  A 1.19 1.19 0.0 0 0 468.57 283.99&#10;  L 467.35 294.68&#10;  A 0.33 0.32 -85.9 0 1 467.03 294.96&#10;  L 439.60 294.96&#10;  A 0.89 0.89 0.0 0 0 438.71 295.85&#10;  L 438.71 305.23&#10;  Q 438.71 306.01 439.50 306.01&#10;  L 463.51 306.01"/>
<path stroke="#838383" d="&#10;  M 498.27 332.07&#10;  L 481.29 332.98&#10;  A 0.48 0.48 0.0 0 1 480.88 332.20&#10;  L 494.28 314.84&#10;  A 1.29 1.29 0.0 0 0 493.79 312.88&#10;  L 483.97 308.45&#10;  A 0.92 0.92 0.0 0 0 482.70 309.10&#10;  Q 482.34 310.85 481.63 312.16&#10;  Q 478.43 318.13 474.50 323.93&#10;  C 471.56 328.27 468.39 331.29 464.20 333.74&#10;  A 1.32 1.31 -27.3 0 0 463.66 335.41&#10;  L 467.24 343.43&#10;  Q 467.78 344.62 469.08 344.51&#10;  L 504.58 341.35&#10;  A 1.16 1.14 -14.3 0 1 505.73 342.02&#10;  Q 506.63 343.99 507.38 345.60&#10;  Q 507.85 346.58 508.64 346.44&#10;  A 2.75 0.60 -44.8 0 0 510.23 345.43&#10;  L 516.18 340.26&#10;  A 1.66 1.65 52.0 0 0 516.45 338.05&#10;  L 502.70 318.64&#10;  A 0.90 0.89 -33.7 0 0 501.48 318.40&#10;  L 493.79 323.30&#10;  A 0.76 0.76 0.0 0 0 493.58 324.38&#10;  L 498.57 331.43&#10;  A 0.41 0.40 70.4 0 1 498.27 332.07"/>
<path stroke="#838383" d="&#10;  M 603.19 344.13&#10;  Q 615.74 337.31 626.00 327.52&#10;  Q 626.49 327.05 629.46 324.71&#10;  A 0.94 0.93 44.8 0 0 629.45 323.23&#10;  L 620.89 316.62&#10;  A 1.49 1.49 0.0 0 0 618.79 316.90&#10;  Q 609.99 328.52 596.16 332.82&#10;  A 0.74 0.73 -24.9 0 0 595.75 333.92&#10;  L 602.07 343.84&#10;  Q 602.49 344.51 603.19 344.13"/>
<path stroke="#838383" d="&#10;  M 662.54 344.99&#10;  L 670.46 334.63&#10;  A 0.23 0.23 0.0 0 0 670.41 334.31&#10;  L 670.30 334.22&#10;  A 31.36 0.80 37.4 0 0 644.90 315.80&#10;  L 637.67 325.26&#10;  A 31.36 0.80 37.4 0 0 662.10 344.94&#10;  L 662.21 345.03&#10;  A 0.23 0.23 0.0 0 0 662.54 344.99"/>
<path stroke="#838383" d="&#10;  M 307.9856 272.4833&#10;  A 0.75 0.75 0.0 0 0 307.2330 271.7359&#10;  L 299.1530 271.7641&#10;  A 0.75 0.75 0.0 0 0 298.4056 272.5167&#10;  L 298.4144 275.0367&#10;  A 0.75 0.75 0.0 0 0 299.1670 275.7841&#10;  L 307.2470 275.7559&#10;  A 0.75 0.75 0.0 0 0 307.9944 275.0033&#10;  L 307.9856 272.4833"/>
<path stroke="#838383" d="&#10;  M 327.7323 272.4381&#10;  A 0.63 0.63 0.0 0 0 327.1034 271.8070&#10;  L 319.1234 271.7930&#10;  A 0.63 0.63 0.0 0 0 318.4923 272.4219&#10;  L 318.4877 275.0419&#10;  A 0.63 0.63 0.0 0 0 319.1166 275.6730&#10;  L 327.0966 275.6870&#10;  A 0.63 0.63 0.0 0 0 327.7277 275.0581&#10;  L 327.7323 272.4381"/>
<path stroke="#838383" d="&#10;  M 347.8156 272.6949&#10;  A 0.98 0.98 0.0 0 0 346.8220 271.7287&#10;  L 339.4427 271.8317&#10;  A 0.98 0.98 0.0 0 0 338.4765 272.8253&#10;  L 338.5044 274.8251&#10;  A 0.98 0.98 0.0 0 0 339.4980 275.7913&#10;  L 346.8773 275.6883&#10;  A 0.98 0.98 0.0 0 0 347.8435 274.6947&#10;  L 347.8156 272.6949"/>
<path stroke="#838383" d="&#10;  M 311.82 297.97&#10;  A 0.47 0.47 0.0 0 0 311.35 297.50&#10;  L 300.31 297.50&#10;  A 0.47 0.47 0.0 0 0 299.99 297.62&#10;  L 297.50 299.92&#10;  A 0.47 0.47 0.0 0 0 297.82 300.74&#10;  L 311.35 300.74&#10;  A 0.47 0.47 0.0 0 0 311.82 300.27&#10;  L 311.82 297.97"/>
<path stroke="#838383" d="&#10;  M 342.10 322.78&#10;  L 338.99 322.78&#10;  A 0.35 0.34 72.7 0 0 338.71 323.32&#10;  L 343.76 330.45&#10;  A 1.28 1.26 -37.7 0 1 343.53 332.17&#10;  L 341.55 333.82&#10;  Q 341.01 334.27 341.72 334.37&#10;  C 346.61 335.03 349.54 332.61 349.80 327.68&#10;  Q 350.54 313.82 349.84 298.00&#10;  Q 349.81 297.48 349.29 297.48&#10;  L 323.38 297.48&#10;  Q 322.16 297.48 322.16 298.70&#10;  L 322.16 299.64&#10;  Q 322.16 300.73 323.25 300.73&#10;  L 341.78 300.73&#10;  A 0.57 0.57 0.0 0 1 342.35 301.30&#10;  L 342.35 322.54&#10;  A 0.25 0.24 -0.0 0 1 342.10 322.78"/>
<path stroke="#838383" d="&#10;  M 312.06 310.85&#10;  A 0.70 0.70 0.0 0 0 311.36 310.15&#10;  L 304.56 310.15&#10;  A 0.70 0.70 0.0 0 0 303.86 310.85&#10;  L 303.86 313.33&#10;  A 0.70 0.70 0.0 0 0 304.56 314.03&#10;  L 311.36 314.03&#10;  A 0.70 0.70 0.0 0 0 312.06 313.33&#10;  L 312.06 310.85"/>
<path stroke="#838383" d="&#10;  M 332.1064 311.0529&#10;  A 0.91 0.91 0.0 0 0 331.1932 310.1461&#10;  L 323.2133 310.1739&#10;  A 0.91 0.91 0.0 0 0 322.3064 311.0871&#10;  L 322.3136 313.1471&#10;  A 0.91 0.91 0.0 0 0 323.2268 314.0539&#10;  L 331.2067 314.0261&#10;  A 0.91 0.91 0.0 0 0 332.1136 313.1129&#10;  L 332.1064 311.0529"/>
<path stroke="#838383" d="&#10;  M 322.49 326.71&#10;  L 327.91 326.57&#10;  A 0.22 0.22 0.0 0 0 328.12 326.35&#10;  L 328.11 325.74&#10;  A 3.03 0.90 88.6 0 0 327.13 322.73&#10;  L 323.07 322.83&#10;  A 3.03 0.90 88.6 0 0 322.25 325.88&#10;  L 322.26 326.49&#10;  A 0.22 0.22 0.0 0 0 322.49 326.71"/>
</g>
<path fill="#ffffff" d="&#10;  M 999.00 0.00&#10;  L 999.00 446.00&#10;  L 0.00 446.00&#10;  L 0.00 0.00&#10;  L 999.00 0.00&#10;  Z&#10;  M 247.22 163.71&#10;  Q 247.21 163.50 247.21 163.45&#10;  Q 247.14 159.93 250.66 159.93&#10;  L 319.00 159.93&#10;  Q 320.42 159.93 321.29 158.81&#10;  L 339.57 135.13&#10;  A 0.38 0.38 0.0 0 0 339.27 134.51&#10;  Q 295.43 134.55 252.09 134.48&#10;  C 238.83 134.46 224.88 138.55 217.18 149.22&#10;  C 211.68 156.83 211.45 169.22 216.73 177.01&#10;  C 224.15 187.98 238.30 192.41 251.52 192.45&#10;  Q 299.21 192.57 302.46 192.66&#10;  C 306.19 192.77 312.76 193.73 313.89 198.03&#10;  C 314.28 199.52 313.46 201.58 312.25 202.52&#10;  C 308.50 205.44 303.13 205.76 298.01 205.77&#10;  Q 265.89 205.81 233.60 205.74&#10;  A 3.07 3.05 -70.9 0 0 231.19 206.92&#10;  L 213.42 229.94&#10;  A 0.85 0.84 18.8 0 0 214.09 231.30&#10;  Q 272.84 231.30 302.25 231.24&#10;  C 318.81 231.22 340.79 222.28 342.60 203.04&#10;  Q 344.27 185.36 330.33 175.64&#10;  Q 318.38 167.29 305.23 167.19&#10;  Q 293.99 167.10 250.69 167.02&#10;  Q 247.38 167.01 247.22 163.71&#10;  Z&#10;  M 411.95 195.38&#10;  Q 434.00 195.38 439.91 195.47&#10;  A 0.37 0.37 0.0 0 1 440.27 195.84&#10;  L 440.27 230.74&#10;  A 0.56 0.55 0.0 0 0 440.83 231.29&#10;  L 470.23 231.29&#10;  A 0.51 0.51 0.0 0 0 470.74 230.78&#10;  L 470.74 135.01&#10;  Q 470.74 134.50 470.23 134.50&#10;  L 440.77 134.50&#10;  A 0.49 0.49 0.0 0 0 440.28 134.99&#10;  L 440.28 169.16&#10;  A 0.43 0.42 -90.0 0 1 439.86 169.59&#10;  Q 425.77 169.71 411.95 169.71&#10;  Q 398.14 169.71 384.05 169.59&#10;  A 0.43 0.42 90.0 0 1 383.63 169.16&#10;  L 383.63 134.99&#10;  A 0.49 0.49 0.0 0 0 383.14 134.50&#10;  L 353.68 134.50&#10;  Q 353.17 134.50 353.17 135.01&#10;  L 353.17 230.78&#10;  A 0.51 0.51 0.0 0 0 353.68 231.29&#10;  L 383.08 231.29&#10;  A 0.56 0.55 0.0 0 0 383.64 230.74&#10;  L 383.64 195.84&#10;  A 0.37 0.37 0.0 0 1 383.99 195.47&#10;  Q 389.91 195.38 411.95 195.38&#10;  Z&#10;  M 553.11 197.06&#10;  Q 553.16 197.06 553.20 197.06&#10;  Q 553.32 197.07 553.40 197.15&#10;  L 585.36 230.68&#10;  A 1.96 1.96 0.0 0 0 586.78 231.29&#10;  L 623.06 231.29&#10;  A 0.70 0.70 0.0 0 0 623.56 230.11&#10;  L 579.13 184.04&#10;  A 0.53 0.52 45.4 0 1 579.13 183.31&#10;  L 625.73 135.45&#10;  A 0.55 0.55 0.0 0 0 625.34 134.52&#10;  L 588.52 134.52&#10;  A 3.25 3.24 -68.2 0 0 586.17 135.53&#10;  Q 569.63 152.91 553.42 169.70&#10;  Q 553.38 169.74 553.12 169.74&#10;  Q 552.86 169.74 552.81 169.70&#10;  Q 536.61 152.90 520.07 135.52&#10;  A 3.25 3.24 68.2 0 0 517.72 134.51&#10;  L 480.90 134.50&#10;  A 0.55 0.55 0.0 0 0 480.51 135.43&#10;  L 527.10 183.30&#10;  A 0.53 0.52 -45.4 0 1 527.10 184.03&#10;  L 482.65 230.09&#10;  A 0.70 0.70 0.0 0 0 483.15 231.27&#10;  L 519.43 231.28&#10;  A 1.96 1.96 0.0 0 0 520.85 230.67&#10;  L 552.82 197.15&#10;  Q 552.90 197.07 553.02 197.06&#10;  Q 553.07 197.06 553.11 197.06&#10;  Z&#10;  M 648.12 231.09&#10;  A 0.41 0.41 0.0 0 0 648.41 230.40&#10;  L 603.38 183.69&#10;  A 0.41 0.41 0.0 0 1 603.38 183.12&#10;  L 651.23 135.26&#10;  A 0.41 0.41 0.0 0 0 650.94 134.56&#10;  L 637.53 134.56&#10;  A 0.41 0.41 0.0 0 0 637.24 134.68&#10;  L 588.42 183.51&#10;  A 0.41 0.41 0.0 0 0 588.41 184.08&#10;  L 631.65 230.96&#10;  A 0.41 0.41 0.0 0 0 631.95 231.09&#10;  L 648.12 231.09&#10;  Z&#10;  M 688.90 205.77&#10;  A 0.66 0.66 0.0 0 1 688.24 205.11&#10;  L 688.24 195.56&#10;  A 0.66 0.66 0.0 0 1 688.90 194.90&#10;  L 738.70 194.90&#10;  A 0.66 0.66 0.0 0 0 739.22 194.64&#10;  L 757.81 170.57&#10;  A 0.66 0.66 0.0 0 0 757.29 169.51&#10;  L 688.86 169.51&#10;  A 0.66 0.66 0.0 0 1 688.20 168.85&#10;  L 688.20 160.56&#10;  A 0.66 0.66 0.0 0 1 688.86 159.90&#10;  L 743.37 159.90&#10;  A 0.66 0.66 0.0 0 0 743.89 159.64&#10;  L 762.48 135.57&#10;  A 0.66 0.66 0.0 0 0 761.96 134.51&#10;  L 658.50 134.51&#10;  A 0.66 0.66 0.0 0 0 657.84 135.17&#10;  L 657.84 230.64&#10;  A 0.66 0.66 0.0 0 0 658.50 231.30&#10;  L 743.30 231.30&#10;  A 0.66 0.66 0.0 0 0 743.82 231.04&#10;  L 762.51 206.83&#10;  A 0.66 0.66 0.0 0 0 761.99 205.77&#10;  L 688.90 205.77&#10;  Z&#10;  M 203.66 231.21&#10;  A 0.74 0.74 0.0 0 0 204.24 230.92&#10;  L 222.76 206.93&#10;  A 0.74 0.74 0.0 0 0 222.17 205.74&#10;  L 208.67 205.74&#10;  A 0.74 0.74 0.0 0 0 208.09 206.03&#10;  L 189.56 230.02&#10;  A 0.74 0.74 0.0 0 0 190.15 231.21&#10;  L 203.66 231.21&#10;  Z&#10;  M 484.86 269.88&#10;  Q 485.03 269.52 485.08 268.86&#10;  Q 485.12 268.38 484.84 268.00&#10;  L 480.02 261.18&#10;  Q 478.98 259.72 477.30 260.35&#10;  L 469.73 263.22&#10;  A 1.05 1.03 63.2 0 0 469.24 264.76&#10;  L 472.45 269.80&#10;  A 0.36 0.36 0.0 0 1 472.15 270.35&#10;  L 441.47 270.35&#10;  Q 440.22 270.35 440.38 271.59&#10;  Q 441.52 280.21 440.52 290.62&#10;  Q 440.47 291.18 441.03 291.18&#10;  L 451.64 291.18&#10;  A 0.50 0.49 -0.0 0 0 452.14 290.69&#10;  L 452.14 281.94&#10;  A 0.83 0.82 -90.0 0 1 452.96 281.11&#10;  L 503.51 281.11&#10;  A 0.59 0.58 90.0 0 1 504.09 281.70&#10;  L 504.09 290.44&#10;  A 0.77 0.77 0.0 0 0 504.86 291.21&#10;  L 515.38 291.21&#10;  Q 515.81 291.21 515.81 290.77&#10;  L 515.81 271.46&#10;  A 1.16 1.15 -90.0 0 0 514.66 270.30&#10;  L 485.14 270.30&#10;  Q 484.67 270.30 484.86 269.88&#10;  Z&#10;  M 297.52 285.42&#10;  C 294.14 289.80 287.75 296.11 281.67 297.28&#10;  A 0.80 0.80 0.0 0 0 281.09 298.40&#10;  L 285.12 307.42&#10;  A 1.10 1.10 0.0 0 0 286.76 307.87&#10;  L 292.80 303.59&#10;  A 0.46 0.45 -17.7 0 1 293.52 303.96&#10;  L 293.52 321.71&#10;  A 1.09 1.08 90.0 0 0 294.60 322.80&#10;  L 311.27 322.80&#10;  A 0.62 0.62 0.0 0 1 311.89 323.42&#10;  L 311.89 326.95&#10;  Q 311.89 327.64 311.19 327.64&#10;  L 287.68 327.64&#10;  A 0.78 0.78 0.0 0 0 286.93 328.63&#10;  L 290.08 339.93&#10;  Q 290.21 340.40 290.92 340.24&#10;  C 292.16 339.97 293.95 339.35 295.61 339.14&#10;  Q 314.47 336.79 333.49 335.18&#10;  Q 334.11 335.13 334.36 335.70&#10;  L 335.34 337.90&#10;  Q 335.66 338.60 336.28 338.16&#10;  L 337.93 336.98&#10;  A 1.01 1.01 0.0 0 1 339.49 337.54&#10;  L 341.74 345.61&#10;  A 0.97 0.97 0.0 0 0 342.77 346.31&#10;  Q 350.47 345.47 356.03 341.78&#10;  C 359.64 339.38 360.54 334.46 360.62 330.52&#10;  Q 361.00 310.66 360.65 288.17&#10;  A 0.55 0.54 89.5 0 0 360.11 287.63&#10;  L 310.96 287.63&#10;  Q 310.28 287.63 310.56 287.02&#10;  L 311.06 285.91&#10;  Q 311.44 285.07 312.36 285.07&#10;  L 357.28 285.07&#10;  A 0.65 0.65 0.0 0 0 357.93 284.42&#10;  L 357.93 262.45&#10;  A 0.59 0.58 -3.1 0 0 357.28 261.87&#10;  Q 354.53 262.15 351.61 262.23&#10;  Q 335.24 262.67 295.50 262.31&#10;  C 293.58 262.29 291.03 261.93 288.84 261.70&#10;  A 1.16 1.16 0.0 0 0 287.56 262.85&#10;  L 287.56 284.78&#10;  A 0.62 0.61 -1.3 0 0 288.21 285.39&#10;  L 297.25 284.90&#10;  A 0.32 0.32 0.0 0 1 297.52 285.42&#10;  Z&#10;  M 641.43 288.94&#10;  L 633.59 263.45&#10;  A 1.48 1.48 0.0 0 0 631.74 262.47&#10;  L 622.64 265.27&#10;  A 1.28 0.25 -17.1 0 0 621.49 265.89&#10;  L 630.05 293.72&#10;  A 1.28 0.25 -17.1 0 0 631.35 293.58&#10;  L 640.45 290.79&#10;  A 1.48 1.48 0.0 0 0 641.43 288.94&#10;  Z&#10;  M 648.97 304.06&#10;  L 592.70 304.06&#10;  Q 592.21 304.06 592.21 304.55&#10;  L 592.21 315.21&#10;  Q 592.21 315.67 592.67 315.67&#10;  L 673.01 315.67&#10;  A 0.67 0.67 0.0 0 0 673.68 315.00&#10;  L 673.68 304.56&#10;  A 0.55 0.55 0.0 0 0 673.13 304.01&#10;  L 654.46 304.01&#10;  A 0.38 0.38 0.0 0 1 654.11 303.47&#10;  C 657.09 296.78 660.48 288.83 663.01 280.48&#10;  Q 664.93 274.15 666.66 269.39&#10;  A 1.14 1.13 -75.6 0 0 665.77 267.88&#10;  Q 660.92 267.13 655.79 264.76&#10;  Q 653.83 263.85 653.56 266.00&#10;  Q 651.76 280.76 644.65 294.96&#10;  Q 643.75 296.77 641.97 299.34&#10;  A 0.60 0.60 0.0 0 0 642.22 300.23&#10;  L 649.12 303.35&#10;  Q 650.70 304.06 648.97 304.06&#10;  Z&#10;  M 606.72 290.44&#10;  C 608.45 295.12 609.74 298.03 610.32 301.16&#10;  A 1.21 1.21 0.0 0 0 612.00 302.05&#10;  L 621.32 297.89&#10;  A 1.47 1.47 0.0 0 0 622.06 295.95&#10;  L 611.23 271.69&#10;  A 1.10 1.10 0.0 0 0 609.84 271.11&#10;  L 600.06 274.83&#10;  A 0.79 0.79 0.0 0 0 599.61 275.89&#10;  C 601.81 280.75 604.86 285.40 606.72 290.44&#10;  Z&#10;  M 463.51 306.01&#10;  A 0.40 0.39 -80.8 0 1 463.88 306.53&#10;  Q 461.57 313.52 457.80 320.05&#10;  Q 455.19 324.56 453.29 326.06&#10;  Q 447.23 330.81 439.40 335.16&#10;  A 0.98 0.98 0.0 0 0 439.28 336.80&#10;  Q 443.49 340.05 445.93 344.00&#10;  A 1.15 1.15 0.0 0 0 447.52 344.37&#10;  C 461.45 335.45 470.49 322.40 475.60 306.91&#10;  Q 475.92 305.95 476.93 305.95&#10;  L 516.82 305.95&#10;  Q 517.56 305.95 517.56 305.21&#10;  L 517.56 295.47&#10;  A 0.47 0.46 0.0 0 0 517.09 295.01&#10;  L 479.34 295.01&#10;  A 0.49 0.49 0.0 0 1 478.86 294.42&#10;  L 480.70 286.08&#10;  Q 481.01 284.69 479.60 284.84&#10;  Q 479.45 284.85 479.14 284.88&#10;  Q 478.83 284.92 478.58 284.85&#10;  Q 474.22 283.73 469.97 282.95&#10;  A 1.19 1.19 0.0 0 0 468.57 283.99&#10;  L 467.35 294.68&#10;  A 0.33 0.32 -85.9 0 1 467.03 294.96&#10;  L 439.60 294.96&#10;  A 0.89 0.89 0.0 0 0 438.71 295.85&#10;  L 438.71 305.23&#10;  Q 438.71 306.01 439.50 306.01&#10;  L 463.51 306.01&#10;  Z&#10;  M 498.27 332.07&#10;  L 481.29 332.98&#10;  A 0.48 0.48 0.0 0 1 480.88 332.20&#10;  L 494.28 314.84&#10;  A 1.29 1.29 0.0 0 0 493.79 312.88&#10;  L 483.97 308.45&#10;  A 0.92 0.92 0.0 0 0 482.70 309.10&#10;  Q 482.34 310.85 481.63 312.16&#10;  Q 478.43 318.13 474.50 323.93&#10;  C 471.56 328.27 468.39 331.29 464.20 333.74&#10;  A 1.32 1.31 -27.3 0 0 463.66 335.41&#10;  L 467.24 343.43&#10;  Q 467.78 344.62 469.08 344.51&#10;  L 504.58 341.35&#10;  A 1.16 1.14 -14.3 0 1 505.73 342.02&#10;  Q 506.63 343.99 507.38 345.60&#10;  Q 507.85 346.58 508.64 346.44&#10;  A 2.75 0.60 -44.8 0 0 510.23 345.43&#10;  L 516.18 340.26&#10;  A 1.66 1.65 52.0 0 0 516.45 338.05&#10;  L 502.70 318.64&#10;  A 0.90 0.89 -33.7 0 0 501.48 318.40&#10;  L 493.79 323.30&#10;  A 0.76 0.76 0.0 0 0 493.58 324.38&#10;  L 498.57 331.43&#10;  A 0.41 0.40 70.4 0 1 498.27 332.07&#10;  Z&#10;  M 603.19 344.13&#10;  Q 615.74 337.31 626.00 327.52&#10;  Q 626.49 327.05 629.46 324.71&#10;  A 0.94 0.93 44.8 0 0 629.45 323.23&#10;  L 620.89 316.62&#10;  A 1.49 1.49 0.0 0 0 618.79 316.90&#10;  Q 609.99 328.52 596.16 332.82&#10;  A 0.74 0.73 -24.9 0 0 595.75 333.92&#10;  L 602.07 343.84&#10;  Q 602.49 344.51 603.19 344.13&#10;  Z&#10;  M 662.54 344.99&#10;  L 670.46 334.63&#10;  A 0.23 0.23 0.0 0 0 670.41 334.31&#10;  L 670.30 334.22&#10;  A 31.36 0.80 37.4 0 0 644.90 315.80&#10;  L 637.67 325.26&#10;  A 31.36 0.80 37.4 0 0 662.10 344.94&#10;  L 662.21 345.03&#10;  A 0.23 0.23 0.0 0 0 662.54 344.99&#10;  Z"/>
<path fill="#070707" d="&#10;  M 247.22 163.71&#10;  Q 247.38 167.01 250.69 167.02&#10;  Q 293.99 167.10 305.23 167.19&#10;  Q 318.38 167.29 330.33 175.64&#10;  Q 344.27 185.36 342.60 203.04&#10;  C 340.79 222.28 318.81 231.22 302.25 231.24&#10;  Q 272.84 231.30 214.09 231.30&#10;  A 0.85 0.84 18.8 0 1 213.42 229.94&#10;  L 231.19 206.92&#10;  A 3.07 3.05 -70.9 0 1 233.60 205.74&#10;  Q 265.89 205.81 298.01 205.77&#10;  C 303.13 205.76 308.50 205.44 312.25 202.52&#10;  C 313.46 201.58 314.28 199.52 313.89 198.03&#10;  C 312.76 193.73 306.19 192.77 302.46 192.66&#10;  Q 299.21 192.57 251.52 192.45&#10;  C 238.30 192.41 224.15 187.98 216.73 177.01&#10;  C 211.45 169.22 211.68 156.83 217.18 149.22&#10;  C 224.88 138.55 238.83 134.46 252.09 134.48&#10;  Q 295.43 134.55 339.27 134.51&#10;  A 0.38 0.38 0.0 0 1 339.57 135.13&#10;  L 321.29 158.81&#10;  Q 320.42 159.93 319.00 159.93&#10;  L 250.66 159.93&#10;  Q 247.14 159.93 247.21 163.45&#10;  Q 247.21 163.50 247.22 163.71&#10;  Z"/>
<path fill="#070707" d="&#10;  M 411.95 169.71&#10;  Q 425.77 169.71 439.86 169.59&#10;  A 0.43 0.42 -90.0 0 0 440.28 169.16&#10;  L 440.28 134.99&#10;  A 0.49 0.49 0.0 0 1 440.77 134.50&#10;  L 470.23 134.50&#10;  Q 470.74 134.50 470.74 135.01&#10;  L 470.74 230.78&#10;  A 0.51 0.51 0.0 0 1 470.23 231.29&#10;  L 440.83 231.29&#10;  A 0.56 0.55 -0.0 0 1 440.27 230.74&#10;  L 440.27 195.84&#10;  A 0.37 0.37 0.0 0 0 439.91 195.47&#10;  Q 434.00 195.38 411.95 195.38&#10;  Q 389.91 195.38 383.99 195.47&#10;  A 0.37 0.37 0.0 0 0 383.64 195.84&#10;  L 383.64 230.74&#10;  A 0.56 0.55 0.0 0 1 383.08 231.29&#10;  L 353.68 231.29&#10;  A 0.51 0.51 0.0 0 1 353.17 230.78&#10;  L 353.17 135.01&#10;  Q 353.17 134.50 353.68 134.50&#10;  L 383.14 134.50&#10;  A 0.49 0.49 0.0 0 1 383.63 134.99&#10;  L 383.63 169.16&#10;  A 0.43 0.42 90.0 0 0 384.05 169.59&#10;  Q 398.14 169.71 411.95 169.71&#10;  Z"/>
<path fill="#070707" d="&#10;  M 553.12 169.74&#10;  Q 553.38 169.74 553.42 169.70&#10;  Q 569.63 152.91 586.17 135.53&#10;  A 3.25 3.24 -68.2 0 1 588.52 134.52&#10;  L 625.34 134.52&#10;  A 0.55 0.55 0.0 0 1 625.73 135.45&#10;  L 579.13 183.31&#10;  A 0.53 0.52 45.4 0 0 579.13 184.04&#10;  L 623.56 230.11&#10;  A 0.70 0.70 0.0 0 1 623.06 231.29&#10;  L 586.78 231.29&#10;  A 1.96 1.96 0.0 0 1 585.36 230.68&#10;  L 553.40 197.15&#10;  Q 553.32 197.07 553.20 197.06&#10;  Q 553.16 197.06 553.11 197.06&#10;  Q 553.07 197.06 553.02 197.06&#10;  Q 552.90 197.07 552.82 197.15&#10;  L 520.85 230.67&#10;  A 1.96 1.96 0.0 0 1 519.43 231.28&#10;  L 483.15 231.27&#10;  A 0.70 0.70 0.0 0 1 482.65 230.09&#10;  L 527.10 184.03&#10;  A 0.53 0.52 -45.4 0 0 527.10 183.30&#10;  L 480.51 135.43&#10;  A 0.55 0.55 0.0 0 1 480.90 134.50&#10;  L 517.72 134.51&#10;  A 3.25 3.24 68.2 0 1 520.07 135.52&#10;  Q 536.61 152.90 552.81 169.70&#10;  Q 552.86 169.74 553.12 169.74&#10;  Z"/>
<path fill="#070707" d="&#10;  M 648.12 231.09&#10;  L 631.95 231.09&#10;  A 0.41 0.41 0.0 0 1 631.65 230.96&#10;  L 588.41 184.08&#10;  A 0.41 0.41 0.0 0 1 588.42 183.51&#10;  L 637.24 134.68&#10;  A 0.41 0.41 0.0 0 1 637.53 134.56&#10;  L 650.94 134.56&#10;  A 0.41 0.41 0.0 0 1 651.23 135.26&#10;  L 603.38 183.12&#10;  A 0.41 0.41 0.0 0 0 603.38 183.69&#10;  L 648.41 230.40&#10;  A 0.41 0.41 0.0 0 1 648.12 231.09&#10;  Z"/>
<path fill="#070707" d="&#10;  M 688.90 205.77&#10;  L 761.99 205.77&#10;  A 0.66 0.66 0.0 0 1 762.51 206.83&#10;  L 743.82 231.04&#10;  A 0.66 0.66 0.0 0 1 743.30 231.30&#10;  L 658.50 231.30&#10;  A 0.66 0.66 0.0 0 1 657.84 230.64&#10;  L 657.84 135.17&#10;  A 0.66 0.66 0.0 0 1 658.50 134.51&#10;  L 761.96 134.51&#10;  A 0.66 0.66 0.0 0 1 762.48 135.57&#10;  L 743.89 159.64&#10;  A 0.66 0.66 0.0 0 1 743.37 159.90&#10;  L 688.86 159.90&#10;  A 0.66 0.66 0.0 0 0 688.20 160.56&#10;  L 688.20 168.85&#10;  A 0.66 0.66 0.0 0 0 688.86 169.51&#10;  L 757.29 169.51&#10;  A 0.66 0.66 0.0 0 1 757.81 170.57&#10;  L 739.22 194.64&#10;  A 0.66 0.66 0.0 0 1 738.70 194.90&#10;  L 688.90 194.90&#10;  A 0.66 0.66 0.0 0 0 688.24 195.56&#10;  L 688.24 205.11&#10;  A 0.66 0.66 0.0 0 0 688.90 205.77&#10;  Z"/>
<path fill="#070707" d="&#10;  M 203.66 231.21&#10;  L 190.15 231.21&#10;  A 0.74 0.74 0.0 0 1 189.56 230.02&#10;  L 208.09 206.03&#10;  A 0.74 0.74 0.0 0 1 208.67 205.74&#10;  L 222.17 205.74&#10;  A 0.74 0.74 0.0 0 1 222.76 206.93&#10;  L 204.24 230.92&#10;  A 0.74 0.74 0.0 0 1 203.66 231.21&#10;  Z"/>
<path fill="#070707" d="&#10;  M 485.14 270.30&#10;  L 514.66 270.30&#10;  A 1.16 1.15 90.0 0 1 515.81 271.46&#10;  L 515.81 290.77&#10;  Q 515.81 291.21 515.38 291.21&#10;  L 504.86 291.21&#10;  A 0.77 0.77 0.0 0 1 504.09 290.44&#10;  L 504.09 281.70&#10;  A 0.59 0.58 -90.0 0 0 503.51 281.11&#10;  L 452.96 281.11&#10;  A 0.83 0.82 -90.0 0 0 452.14 281.94&#10;  L 452.14 290.69&#10;  A 0.50 0.49 -0.0 0 1 451.64 291.18&#10;  L 441.03 291.18&#10;  Q 440.47 291.18 440.52 290.62&#10;  Q 441.52 280.21 440.38 271.59&#10;  Q 440.22 270.35 441.47 270.35&#10;  L 472.15 270.35&#10;  A 0.36 0.36 0.0 0 0 472.45 269.80&#10;  L 469.24 264.76&#10;  A 1.05 1.03 63.2 0 1 469.73 263.22&#10;  L 477.30 260.35&#10;  Q 478.98 259.72 480.02 261.18&#10;  L 484.84 268.00&#10;  Q 485.12 268.38 485.08 268.86&#10;  Q 485.03 269.52 484.86 269.88&#10;  Q 484.67 270.30 485.14 270.30&#10;  Z"/>
<path fill="#070707" d="&#10;  M 297.52 285.42&#10;  A 0.32 0.32 0.0 0 0 297.25 284.90&#10;  L 288.21 285.39&#10;  A 0.62 0.61 -1.3 0 1 287.56 284.78&#10;  L 287.56 262.85&#10;  A 1.16 1.16 0.0 0 1 288.84 261.70&#10;  C 291.03 261.93 293.58 262.29 295.50 262.31&#10;  Q 335.24 262.67 351.61 262.23&#10;  Q 354.53 262.15 357.28 261.87&#10;  A 0.59 0.58 -3.1 0 1 357.93 262.45&#10;  L 357.93 284.42&#10;  A 0.65 0.65 0.0 0 1 357.28 285.07&#10;  L 312.36 285.07&#10;  Q 311.44 285.07 311.06 285.91&#10;  L 310.56 287.02&#10;  Q 310.28 287.63 310.96 287.63&#10;  L 360.11 287.63&#10;  A 0.55 0.54 89.5 0 1 360.65 288.17&#10;  Q 361.00 310.66 360.62 330.52&#10;  C 360.54 334.46 359.64 339.38 356.03 341.78&#10;  Q 350.47 345.47 342.77 346.31&#10;  A 0.97 0.97 0.0 0 1 341.74 345.61&#10;  L 339.49 337.54&#10;  A 1.01 1.01 0.0 0 0 337.93 336.98&#10;  L 336.28 338.16&#10;  Q 335.66 338.60 335.34 337.90&#10;  L 334.36 335.70&#10;  Q 334.11 335.13 333.49 335.18&#10;  Q 314.47 336.79 295.61 339.14&#10;  C 293.95 339.35 292.16 339.97 290.92 340.24&#10;  Q 290.21 340.40 290.08 339.93&#10;  L 286.93 328.63&#10;  A 0.78 0.78 0.0 0 1 287.68 327.64&#10;  L 311.19 327.64&#10;  Q 311.89 327.64 311.89 326.95&#10;  L 311.89 323.42&#10;  A 0.62 0.62 0.0 0 0 311.27 322.80&#10;  L 294.60 322.80&#10;  A 1.09 1.08 -90.0 0 1 293.52 321.71&#10;  L 293.52 303.96&#10;  A 0.46 0.45 -17.7 0 0 292.80 303.59&#10;  L 286.76 307.87&#10;  A 1.10 1.10 0.0 0 1 285.12 307.42&#10;  L 281.09 298.40&#10;  A 0.80 0.80 0.0 0 1 281.67 297.28&#10;  C 287.75 296.11 294.14 289.80 297.52 285.42&#10;  Z&#10;  M 307.9856 272.4833&#10;  A 0.75 0.75 0.0 0 0 307.2330 271.7359&#10;  L 299.1530 271.7641&#10;  A 0.75 0.75 0.0 0 0 298.4056 272.5167&#10;  L 298.4144 275.0367&#10;  A 0.75 0.75 0.0 0 0 299.1670 275.7841&#10;  L 307.2470 275.7559&#10;  A 0.75 0.75 0.0 0 0 307.9944 275.0033&#10;  L 307.9856 272.4833&#10;  Z&#10;  M 327.7323 272.4381&#10;  A 0.63 0.63 0.0 0 0 327.1034 271.8070&#10;  L 319.1234 271.7930&#10;  A 0.63 0.63 0.0 0 0 318.4923 272.4219&#10;  L 318.4877 275.0419&#10;  A 0.63 0.63 0.0 0 0 319.1166 275.6730&#10;  L 327.0966 275.6870&#10;  A 0.63 0.63 0.0 0 0 327.7277 275.0581&#10;  L 327.7323 272.4381&#10;  Z&#10;  M 347.8156 272.6949&#10;  A 0.98 0.98 0.0 0 0 346.8220 271.7287&#10;  L 339.4427 271.8317&#10;  A 0.98 0.98 0.0 0 0 338.4765 272.8253&#10;  L 338.5044 274.8251&#10;  A 0.98 0.98 0.0 0 0 339.4980 275.7913&#10;  L 346.8773 275.6883&#10;  A 0.98 0.98 0.0 0 0 347.8435 274.6947&#10;  L 347.8156 272.6949&#10;  Z&#10;  M 311.82 297.97&#10;  A 0.47 0.47 0.0 0 0 311.35 297.50&#10;  L 300.31 297.50&#10;  A 0.47 0.47 0.0 0 0 299.99 297.62&#10;  L 297.50 299.92&#10;  A 0.47 0.47 0.0 0 0 297.82 300.74&#10;  L 311.35 300.74&#10;  A 0.47 0.47 0.0 0 0 311.82 300.27&#10;  L 311.82 297.97&#10;  Z&#10;  M 342.10 322.78&#10;  L 338.99 322.78&#10;  A 0.35 0.34 72.7 0 0 338.71 323.32&#10;  L 343.76 330.45&#10;  A 1.28 1.26 -37.7 0 1 343.53 332.17&#10;  L 341.55 333.82&#10;  Q 341.01 334.27 341.72 334.37&#10;  C 346.61 335.03 349.54 332.61 349.80 327.68&#10;  Q 350.54 313.82 349.84 298.00&#10;  Q 349.81 297.48 349.29 297.48&#10;  L 323.38 297.48&#10;  Q 322.16 297.48 322.16 298.70&#10;  L 322.16 299.64&#10;  Q 322.16 300.73 323.25 300.73&#10;  L 341.78 300.73&#10;  A 0.57 0.57 0.0 0 1 342.35 301.30&#10;  L 342.35 322.54&#10;  A 0.25 0.24 -0.0 0 1 342.10 322.78&#10;  Z&#10;  M 312.06 310.85&#10;  A 0.70 0.70 0.0 0 0 311.36 310.15&#10;  L 304.56 310.15&#10;  A 0.70 0.70 0.0 0 0 303.86 310.85&#10;  L 303.86 313.33&#10;  A 0.70 0.70 0.0 0 0 304.56 314.03&#10;  L 311.36 314.03&#10;  A 0.70 0.70 0.0 0 0 312.06 313.33&#10;  L 312.06 310.85&#10;  Z&#10;  M 332.1064 311.0529&#10;  A 0.91 0.91 0.0 0 0 331.1932 310.1461&#10;  L 323.2133 310.1739&#10;  A 0.91 0.91 0.0 0 0 322.3064 311.0871&#10;  L 322.3136 313.1471&#10;  A 0.91 0.91 0.0 0 0 323.2268 314.0539&#10;  L 331.2067 314.0261&#10;  A 0.91 0.91 0.0 0 0 332.1136 313.1129&#10;  L 332.1064 311.0529&#10;  Z&#10;  M 322.49 326.71&#10;  L 327.91 326.57&#10;  A 0.22 0.22 0.0 0 0 328.12 326.35&#10;  L 328.11 325.74&#10;  A 3.03 0.90 88.6 0 0 327.13 322.73&#10;  L 323.07 322.83&#10;  A 3.03 0.90 88.6 0 0 322.25 325.88&#10;  L 322.26 326.49&#10;  A 0.22 0.22 0.0 0 0 322.49 326.71&#10;  Z"/>
<path fill="#070707" d="&#10;  M 641.43 288.94&#10;  A 1.48 1.48 0.0 0 1 640.45 290.79&#10;  L 631.35 293.58&#10;  A 1.28 0.25 -17.1 0 1 630.05 293.72&#10;  L 621.49 265.89&#10;  A 1.28 0.25 -17.1 0 1 622.64 265.27&#10;  L 631.74 262.47&#10;  A 1.48 1.48 0.0 0 1 633.59 263.45&#10;  L 641.43 288.94&#10;  Z"/>
<path fill="#070707" d="&#10;  M 648.97 304.06&#10;  Q 650.70 304.06 649.12 303.35&#10;  L 642.22 300.23&#10;  A 0.60 0.60 0.0 0 1 641.97 299.34&#10;  Q 643.75 296.77 644.65 294.96&#10;  Q 651.76 280.76 653.56 266.00&#10;  Q 653.83 263.85 655.79 264.76&#10;  Q 660.92 267.13 665.77 267.88&#10;  A 1.14 1.13 -75.6 0 1 666.66 269.39&#10;  Q 664.93 274.15 663.01 280.48&#10;  C 660.48 288.83 657.09 296.78 654.11 303.47&#10;  A 0.38 0.38 0.0 0 0 654.46 304.01&#10;  L 673.13 304.01&#10;  A 0.55 0.55 0.0 0 1 673.68 304.56&#10;  L 673.68 315.00&#10;  A 0.67 0.67 0.0 0 1 673.01 315.67&#10;  L 592.67 315.67&#10;  Q 592.21 315.67 592.21 315.21&#10;  L 592.21 304.55&#10;  Q 592.21 304.06 592.70 304.06&#10;  L 648.97 304.06&#10;  Z"/>
<path fill="#070707" d="&#10;  M 610.32 301.16&#10;  C 609.74 298.03 608.45 295.12 606.72 290.44&#10;  C 604.86 285.40 601.81 280.75 599.61 275.89&#10;  A 0.79 0.79 0.0 0 1 600.06 274.83&#10;  L 609.84 271.11&#10;  A 1.10 1.10 0.0 0 1 611.23 271.69&#10;  L 622.06 295.95&#10;  A 1.47 1.47 0.0 0 1 621.32 297.89&#10;  L 612.00 302.05&#10;  A 1.21 1.21 0.0 0 1 610.32 301.16&#10;  Z"/>
<rect fill="#ffffff" x="-4.79" y="-2.01" transform="translate(303.20,273.76) rotate(-0.2)" width="9.58" height="4.02" rx="0.75"/>
<rect fill="#ffffff" x="-4.62" y="-1.94" transform="translate(323.11,273.74) rotate(0.1)" width="9.24" height="3.88" rx="0.63"/>
<rect fill="#ffffff" x="-4.67" y="-1.98" transform="translate(343.16,273.76) rotate(-0.8)" width="9.34" height="3.96" rx="0.98"/>
<path fill="#070707" d="&#10;  M 463.51 306.01&#10;  L 439.50 306.01&#10;  Q 438.71 306.01 438.71 305.23&#10;  L 438.71 295.85&#10;  A 0.89 0.89 0.0 0 1 439.60 294.96&#10;  L 467.03 294.96&#10;  A 0.33 0.32 -85.9 0 0 467.35 294.68&#10;  L 468.57 283.99&#10;  A 1.19 1.19 0.0 0 1 469.97 282.95&#10;  Q 474.22 283.73 478.58 284.85&#10;  Q 478.83 284.92 479.14 284.88&#10;  Q 479.45 284.85 479.60 284.84&#10;  Q 481.01 284.69 480.70 286.08&#10;  L 478.86 294.42&#10;  A 0.49 0.49 0.0 0 0 479.34 295.01&#10;  L 517.09 295.01&#10;  A 0.47 0.46 -0.0 0 1 517.56 295.47&#10;  L 517.56 305.21&#10;  Q 517.56 305.95 516.82 305.95&#10;  L 476.93 305.95&#10;  Q 475.92 305.95 475.60 306.91&#10;  C 470.49 322.40 461.45 335.45 447.52 344.37&#10;  A 1.15 1.15 0.0 0 1 445.93 344.00&#10;  Q 443.49 340.05 439.28 336.80&#10;  A 0.98 0.98 0.0 0 1 439.40 335.16&#10;  Q 447.23 330.81 453.29 326.06&#10;  Q 455.19 324.56 457.80 320.05&#10;  Q 461.57 313.52 463.88 306.53&#10;  A 0.40 0.39 -80.8 0 0 463.51 306.01&#10;  Z"/>
<path fill="#ffffff" d="&#10;  M 311.82 297.97&#10;  L 311.82 300.27&#10;  A 0.47 0.47 0.0 0 1 311.35 300.74&#10;  L 297.82 300.74&#10;  A 0.47 0.47 0.0 0 1 297.50 299.92&#10;  L 299.99 297.62&#10;  A 0.47 0.47 0.0 0 1 300.31 297.50&#10;  L 311.35 297.50&#10;  A 0.47 0.47 0.0 0 1 311.82 297.97&#10;  Z"/>
<path fill="#ffffff" d="&#10;  M 342.10 322.78&#10;  A 0.25 0.24 0.0 0 0 342.35 322.54&#10;  L 342.35 301.30&#10;  A 0.57 0.57 0.0 0 0 341.78 300.73&#10;  L 323.25 300.73&#10;  Q 322.16 300.73 322.16 299.64&#10;  L 322.16 298.70&#10;  Q 322.16 297.48 323.38 297.48&#10;  L 349.29 297.48&#10;  Q 349.81 297.48 349.84 298.00&#10;  Q 350.54 313.82 349.80 327.68&#10;  C 349.54 332.61 346.61 335.03 341.72 334.37&#10;  Q 341.01 334.27 341.55 333.82&#10;  L 343.53 332.17&#10;  A 1.28 1.26 -37.7 0 0 343.76 330.45&#10;  L 338.71 323.32&#10;  A 0.35 0.34 72.7 0 1 338.99 322.78&#10;  L 342.10 322.78&#10;  Z"/>
<path fill="#070707" d="&#10;  M 498.27 332.07&#10;  A 0.41 0.40 70.4 0 0 498.57 331.43&#10;  L 493.58 324.38&#10;  A 0.76 0.76 0.0 0 1 493.79 323.30&#10;  L 501.48 318.40&#10;  A 0.90 0.89 -33.7 0 1 502.70 318.64&#10;  L 516.45 338.05&#10;  A 1.66 1.65 52.0 0 1 516.18 340.26&#10;  L 510.23 345.43&#10;  A 2.75 0.60 -44.8 0 1 508.64 346.44&#10;  Q 507.85 346.58 507.38 345.60&#10;  Q 506.63 343.99 505.73 342.02&#10;  A 1.16 1.14 -14.3 0 0 504.58 341.35&#10;  L 469.08 344.51&#10;  Q 467.78 344.62 467.24 343.43&#10;  L 463.66 335.41&#10;  A 1.32 1.31 -27.3 0 1 464.20 333.74&#10;  C 468.39 331.29 471.56 328.27 474.50 323.93&#10;  Q 478.43 318.13 481.63 312.16&#10;  Q 482.34 310.85 482.70 309.10&#10;  A 0.92 0.92 0.0 0 1 483.97 308.45&#10;  L 493.79 312.88&#10;  A 1.29 1.29 0.0 0 1 494.28 314.84&#10;  L 480.88 332.20&#10;  A 0.48 0.48 0.0 0 0 481.29 332.98&#10;  L 498.27 332.07&#10;  Z"/>
<rect fill="#ffffff" x="303.86" y="310.15" width="8.20" height="3.88" rx="0.70"/>
<rect fill="#ffffff" x="-4.90" y="-1.94" transform="translate(327.21,312.10) rotate(-0.2)" width="9.80" height="3.88" rx="0.91"/>
<path fill="#070707" d="&#10;  M 603.19 344.13&#10;  Q 602.49 344.51 602.07 343.84&#10;  L 595.75 333.92&#10;  A 0.74 0.73 -24.9 0 1 596.16 332.82&#10;  Q 609.99 328.52 618.79 316.90&#10;  A 1.49 1.49 0.0 0 1 620.89 316.62&#10;  L 629.45 323.23&#10;  A 0.94 0.93 44.8 0 1 629.46 324.71&#10;  Q 626.49 327.05 626.00 327.52&#10;  Q 615.74 337.31 603.19 344.13&#10;  Z"/>
<path fill="#070707" d="&#10;  M 662.54 344.99&#10;  A 0.23 0.23 0.0 0 1 662.21 345.03&#10;  L 662.10 344.94&#10;  A 31.36 0.80 37.4 0 1 637.67 325.26&#10;  L 644.90 315.80&#10;  A 31.36 0.80 37.4 0 1 670.30 334.22&#10;  L 670.41 334.31&#10;  A 0.23 0.23 0.0 0 1 670.46 334.63&#10;  L 662.54 344.99&#10;  Z"/>
<path fill="#ffffff" d="&#10;  M 322.49 326.71&#10;  A 0.22 0.22 0.0 0 1 322.26 326.49&#10;  L 322.25 325.88&#10;  A 3.03 0.90 88.6 0 1 323.07 322.83&#10;  L 327.13 322.73&#10;  A 3.03 0.90 88.6 0 1 328.11 325.74&#10;  L 328.12 326.35&#10;  A 0.22 0.22 0.0 0 1 327.91 326.57&#10;  L 322.49 326.71&#10;  Z"/>
</svg>